<svg xmlns="http://www.w3.org/2000/svg" class="ionicon" width="111.938" height="87.063" viewBox="0 0 111.938 87.063">
  <path id="address-card-regular" d="M102.61,32H9.328A9.331,9.331,0,0,0,0,41.328v68.407a9.331,9.331,0,0,0,9.328,9.328H102.61a9.331,9.331,0,0,0,9.328-9.328V41.328A9.331,9.331,0,0,0,102.61,32Zm0,77.735H9.328V41.328H102.61Zm-62.188-34.2A12.438,12.438,0,1,0,27.985,63.094,12.449,12.449,0,0,0,40.422,75.532ZM23.01,100.407H57.835c2.41,0,4.353-1.671,4.353-3.731V92.944c0-6.18-5.85-11.194-13.059-11.194-2.1,0-3.634,1.555-8.706,1.555-5.228,0-6.491-1.555-8.706-1.555-7.21,0-13.059,5.014-13.059,11.194v3.731C18.656,98.736,20.6,100.407,23.01,100.407ZM69.962,87.969H91.727a1.559,1.559,0,0,0,1.555-1.555V83.305a1.559,1.559,0,0,0-1.555-1.555H69.962a1.559,1.559,0,0,0-1.555,1.555v3.109A1.559,1.559,0,0,0,69.962,87.969Zm0-12.438H91.727a1.559,1.559,0,0,0,1.555-1.555V70.868a1.559,1.559,0,0,0-1.555-1.555H69.962a1.559,1.559,0,0,0-1.555,1.555v3.109A1.559,1.559,0,0,0,69.962,75.532Zm0-12.438H91.727a1.559,1.559,0,0,0,1.555-1.555V58.43a1.559,1.559,0,0,0-1.555-1.555H69.962a1.559,1.559,0,0,0-1.555,1.555v3.109A1.559,1.559,0,0,0,69.962,63.094Z" transform="translate(0 -32)" />
</svg>
