<svg xmlns="http://www.w3.org/2000/svg" class="ionicon" width="74.712" height="80.678" viewBox="0 0 74.712 80.678">
  <g id="Grupo_1" data-name="Grupo 1" transform="translate(0 0)">
    <path id="FontAwsome_wifi_" data-name="FontAwsome wifi " d="M156.827,91.807a48.44,48.44,0,0,0-65.6,0,1.665,1.665,0,0,0-.072,2.346l.047.047,3.567,3.539a1.687,1.687,0,0,0,2.33.039,39.962,39.962,0,0,1,53.877,0,1.687,1.687,0,0,0,2.33-.039L156.87,94.2a1.665,1.665,0,0,0,.014-2.345l-.047-.047Zm-11.691,11.827a31.976,31.976,0,0,0-42.221,0,1.645,1.645,0,0,0-.144,2.324,1.186,1.186,0,0,0,.08.088l3.589,3.541a1.7,1.7,0,0,0,2.3.08,23.463,23.463,0,0,1,30.577,0,1.7,1.7,0,0,0,2.3-.08l3.589-3.541a1.645,1.645,0,0,0,.029-2.33c-.037-.028-.064-.059-.093-.083Z" transform="translate(-86.426 -79.011)" />
    <path id="Icon_material-watch" data-name="Icon material-watch" d="M125.854,144.713a24.836,24.836,0,0,0,19.521-9.461l17.837-2.992V107.352L145.374,104.4a24.809,24.809,0,0,0-39.036,0L88.5,107.352v24.91l17.838,2.987A24.822,24.822,0,0,0,125.854,144.713Zm0-43.58a18.676,18.676,0,1,1-18.676,18.676h0A18.69,18.69,0,0,1,125.854,101.133Z" transform="translate(-88.5 -64.035)" />
  </g>
</svg>
