<svg xmlns="http://www.w3.org/2000/svg" width="88.529" height="77.463" viewBox="0 0 88.529 77.463">
  <path id="camera-solid" d="M88.529,51.366v49.8a8.3,8.3,0,0,1-8.3,8.3H8.3a8.3,8.3,0,0,1-8.3-8.3v-49.8a8.3,8.3,0,0,1,8.3-8.3H23.515l2.127-5.689A8.288,8.288,0,0,1,33.406,32h21.7a8.288,8.288,0,0,1,7.764,5.377l2.144,5.689H80.229A8.3,8.3,0,0,1,88.529,51.366Zm-23.515,24.9A20.749,20.749,0,1,0,44.264,97.013,20.765,20.765,0,0,0,65.013,76.264Zm-5.533,0A15.216,15.216,0,1,1,44.264,61.048,15.238,15.238,0,0,1,59.48,76.264Z" transform="translate(0 -32)" fill="#fff"/>
</svg>
