<svg xmlns="http://www.w3.org/2000/svg" width="137.409" height="137.409" viewBox="0 0 137.409 137.409">
  <path id="check-circle-regular" d="M76.7,8a68.7,68.7,0,1,0,68.7,68.7A68.7,68.7,0,0,0,76.7,8Zm0,13.3A55.407,55.407,0,1,1,21.3,76.7,55.377,55.377,0,0,1,76.7,21.3m38.841,36.088L109.3,51.092a3.324,3.324,0,0,0-4.7-.019L65.442,89.918l-16.564-16.7a3.324,3.324,0,0,0-4.7-.019l-6.294,6.243a3.324,3.324,0,0,0-.019,4.7L63.013,109.5a3.324,3.324,0,0,0,4.7.019l47.813-47.429a3.325,3.325,0,0,0,.019-4.7Z" transform="translate(-8 -8)" fill="#01b625"/>
</svg>
