<svg xmlns="http://www.w3.org/2000/svg" width="49.412" height="49.412" viewBox="0 0 49.412 49.412">
  <g id="Group_75" data-name="Group 75" transform="translate(-30 -34.312)">
    <path id="Icon_awesome-clone" data-name="Icon awesome-clone" d="M44.78,0a4.632,4.632,0,0,1,4.632,4.632V32.427a4.632,4.632,0,0,1-4.632,4.632H16.985a4.632,4.632,0,0,1-4.632-4.632V4.632A4.632,4.632,0,0,1,16.985,0H44.78M16.985,40.147a7.729,7.729,0,0,1-7.721-7.721V12.353H4.632A4.632,4.632,0,0,0,0,16.985V44.78a4.632,4.632,0,0,0,4.632,4.632H32.427a4.632,4.632,0,0,0,4.632-4.632V40.147Z" transform="translate(30 34.312)" fill="#fff"/>
    <g id="Group_71" data-name="Group 71" transform="translate(-47 -684)">
      <path id="FontAwsome_wifi_" data-name="FontAwsome wifi " d="M106.085,81.987a11.268,11.268,0,0,0-15.263,0,.386.386,0,0,0-.019.546l.011.011.83.823a.393.393,0,0,0,.543.009,9.3,9.3,0,0,1,12.535,0,.393.393,0,0,0,.543-.009l.83-.823a.386.386,0,0,0,0-.546l-.011-.011Zm-2.72,2.751a7.44,7.44,0,0,0-9.823,0,.383.383,0,0,0-.033.54l.019.02.835.824a.4.4,0,0,0,.534.019,5.458,5.458,0,0,1,7.112,0,.4.4,0,0,0,.534-.019l.835-.824a.383.383,0,0,0,.007-.541Z" transform="translate(9.293 647.841)" fill="#387956"/>
      <path id="Icon_material-watch" data-name="Icon material-watch" d="M97.193,106.493a5.778,5.778,0,0,0,4.541-2.2l4.15-.7V97.8l-4.15-.687a5.772,5.772,0,0,0-9.082,0L88.5,97.8v5.8l4.15.695A5.777,5.777,0,0,0,97.193,106.493Zm0-10.139a4.345,4.345,0,1,1-4.345,4.345h0A4.348,4.348,0,0,1,97.193,96.353Z" transform="translate(10.498 639.129)" fill="#387956"/>
    </g>
  </g>
</svg>
