<svg xmlns="http://www.w3.org/2000/svg" class="ionicon" width="45.081" height="36.067" viewBox="0 0 45.081 36.067">
  <path id="user-edit-solid" d="M15.779,18.033A9.017,9.017,0,1,0,6.762,9.017,9.016,9.016,0,0,0,15.779,18.033Zm6.312,2.254H20.914a12.262,12.262,0,0,1-10.27,0H9.467A9.47,9.47,0,0,0,0,29.755v2.93a3.382,3.382,0,0,0,3.381,3.381H22.746a3.383,3.383,0,0,1-.183-1.5l.479-4.29.085-.782.556-.556,5.445-5.445A9.371,9.371,0,0,0,22.091,20.287Zm3.191,10.235-.479,4.3a1.121,1.121,0,0,0,1.24,1.24l4.29-.479,9.714-9.714L35,20.816ZM44.59,18.942l-2.67-2.67a1.688,1.688,0,0,0-2.381,0l-2.663,2.663-.289.289,5.058,5.051L44.59,21.33A1.7,1.7,0,0,0,44.59,18.942Z" />
</svg>
