<svg xmlns="http://www.w3.org/2000/svg" class="ionicon" width="39.665" height="35.251" viewBox="0 0 39.665 35.251">
  <path id="Icon_awesome-edit" data-name="Icon awesome-edit" d="M27.724,5.73l6.211,6.211a.673.673,0,0,1,0,.95L18.9,27.931l-6.39.709a1.339,1.339,0,0,1-1.481-1.481l.709-6.39L26.774,5.73A.673.673,0,0,1,27.724,5.73ZM38.88,4.153,35.519.792a2.693,2.693,0,0,0-3.8,0L29.281,3.23a.673.673,0,0,0,0,.95l6.211,6.211a.673.673,0,0,0,.95,0L38.88,7.954a2.693,2.693,0,0,0,0-3.8ZM26.443,23.84v7.01H4.407V8.815H20.232a.847.847,0,0,0,.585-.241l2.755-2.755a.826.826,0,0,0-.585-1.412H3.305A3.306,3.306,0,0,0,0,7.713v24.24a3.306,3.306,0,0,0,3.305,3.305h24.24a3.306,3.306,0,0,0,3.305-3.305V21.086a.828.828,0,0,0-1.412-.585l-2.755,2.755A.847.847,0,0,0,26.443,23.84Z" transform="translate(0 -0.007)" />
</svg>
