<svg xmlns="http://www.w3.org/2000/svg" class="ionicon" width="46.381" height="36.067" viewBox="0 0 46.381 36.067">
  <path id="home-solid" d="M22.56,41.407,7.715,53.633v13.2A1.288,1.288,0,0,0,9,68.117l9.023-.023a1.288,1.288,0,0,0,1.282-1.288V59.1A1.288,1.288,0,0,1,20.6,57.811h5.153A1.288,1.288,0,0,1,27.038,59.1v7.7a1.288,1.288,0,0,0,1.288,1.292l9.019.025a1.288,1.288,0,0,0,1.288-1.288v-13.2L23.792,41.407a.981.981,0,0,0-1.232,0Zm23.449,8.31-6.731-5.548V33.016a.966.966,0,0,0-.966-.966H33.8a.966.966,0,0,0-.966.966v5.846l-7.209-5.931a3.865,3.865,0,0,0-4.911,0L.335,49.717a.966.966,0,0,0-.129,1.361l2.053,2.5a.966.966,0,0,0,1.362.131l18.939-15.6a.981.981,0,0,1,1.232,0l18.94,15.6a.966.966,0,0,0,1.361-.129l2.053-2.5a.966.966,0,0,0-.137-1.363Z" transform="translate(0.015 -32.05)" />
</svg>
