<svg xmlns="http://www.w3.org/2000/svg" width="335.207" height="65.3" viewBox="0 0 335.207 65.3">
  <g id="Grupo_9" data-name="Grupo 9" transform="translate(-42.022 -166.809)">
    <g id="Grupo_6" data-name="Grupo 6" transform="translate(42.022 166.809)">
      <path id="Trazado_37" data-name="Trazado 37" d="M71.675,204.6c-.122.306-.192.467-.251.632q-3.913,10.9-7.814,21.8a.66.66,0,0,1-.748.534c-2.084-.023-4.169-.019-6.254,0a.537.537,0,0,1-.615-.422q-6.891-19.354-13.8-38.7c-.061-.17-.1-.346-.169-.569h2.387c2.034,0,4.068.014,6.1-.011a.649.649,0,0,1,.739.536q3.876,11.417,7.78,22.824c.239.7.484,1.4.764,2.2.119-.288.205-.466.27-.652q4.231-12.233,8.451-24.469a.535.535,0,0,1,.606-.44q2.517.03,5.034,0a.581.581,0,0,1,.674.475q4.18,12.222,8.394,24.434c.053.153.117.3.22.571.108-.255.179-.4.23-.546q4.124-12.162,8.233-24.329a.735.735,0,0,1,.842-.609c2.593.027,5.187.012,7.78.012h.624c-.054.2-.085.362-.138.512Q94.148,207.739,87.286,227.1a.576.576,0,0,1-.652.456c-2.1-.017-4.2-.021-6.3,0-.4,0-.543-.146-.667-.5q-3.829-10.818-7.682-21.627C71.9,205.206,71.814,204.977,71.675,204.6Z" transform="translate(-42.022 -173.417)" fill="#1b9331"/>
      <path id="Trazado_38" data-name="Trazado 38" d="M309.989,184.359c1.171-.653,2.245-1.337,3.387-1.873a20.4,20.4,0,0,1,9.795-1.735c8.72.407,16.176,5.731,18.155,15.032a23.775,23.775,0,0,1-.886,13.669,17.728,17.728,0,0,1-12.906,11.357A19.811,19.811,0,0,1,313.57,219.6c-5.78-2.844-9.865-7.2-11.365-13.622a17.477,17.477,0,0,1-.468-3.86c-.039-9.056-.023-18.114-.02-27.171a8.211,8.211,0,0,1,7.6-8.122c.6-.042.637-.016.638.59q0,8.126,0,16.252C309.956,183.895,309.977,184.125,309.989,184.359Zm11.928,4.53c-.624.047-1.252.062-1.87.147a10.822,10.822,0,0,0-8.59,5.9,13.117,13.117,0,0,0-1.228,8.426,11.076,11.076,0,0,0,6.339,8.738,12.526,12.526,0,0,0,8.033.85c4.21-.851,7.139-3.232,8.39-7.411a15.552,15.552,0,0,0-.06-9.138,9.825,9.825,0,0,0-5.347-6.308A13.286,13.286,0,0,0,321.917,188.889Z" transform="translate(-123.567 -166.809)" fill="#1b9331"/>
      <path id="Trazado_39" data-name="Trazado 39" d="M376.566,211.534c.305.722.521,1.343.82,1.921a10.737,10.737,0,0,0,8.1,5.821,15.094,15.094,0,0,0,10.969-2.269,11.864,11.864,0,0,0,3.011-3.2c.149-.2.307-.394.485-.621l6.276,5.016a21.553,21.553,0,0,1-4.846,5.27,22.215,22.215,0,0,1-10.066,4.036,21.485,21.485,0,0,1-11.559-1.27,18.566,18.566,0,0,1-11.422-13.464,20.843,20.843,0,0,1,2.1-15.786,18.934,18.934,0,0,1,13.677-9.57,21.453,21.453,0,0,1,14.811,2.446,16.79,16.79,0,0,1,8.179,11.516,26.352,26.352,0,0,1,.237,9.126c-.134,1.024-.135,1.024-1.179,1.024H376.566Zm22.632-7.989a1.021,1.021,0,0,0,.011-.228,9.282,9.282,0,0,0-4.993-6.829,13.72,13.72,0,0,0-7.446-1.305,10.822,10.822,0,0,0-9.424,6.387c-.3.613-.5,1.275-.767,1.975Z" transform="translate(-144.274 -173.163)" fill="#1b9331"/>
      <path id="Trazado_40" data-name="Trazado 40" d="M254.667,167.119v26.5c.235-.2.374-.3.5-.416q6.077-5.622,12.159-11.24a1.083,1.083,0,0,1,.646-.3c3.779-.019,7.559-.013,11.339-.012.065,0,.13.014.31.035l-20.384,18.816L281.8,221.336h-.67c-3.525,0-7.051-.008-10.577.009a1.456,1.456,0,0,1-1.077-.416q-7.138-6.532-14.3-13.044c-.123-.112-.25-.217-.48-.417v13.839h-8.314V220.7q0-22.675,0-45.349a8.234,8.234,0,0,1,7.216-8.125C253.938,167.184,254.272,167.157,254.667,167.119Z" transform="translate(-106.195 -166.906)" fill="#1b9331"/>
      <path id="Trazado_41" data-name="Trazado 41" d="M170.859,206.926c0,4.925-1.014,8.987-3.536,12.587A18.82,18.82,0,0,1,155,227.335a21.226,21.226,0,0,1-13.2-1.469,18.367,18.367,0,0,1-10.794-13.83,21.969,21.969,0,0,1,1.474-13.736,18.605,18.605,0,0,1,13.92-10.933,20.768,20.768,0,0,1,13.239,1.485,18.9,18.9,0,0,1,10.576,13.123A20.149,20.149,0,0,1,170.859,206.926Zm-8.257.551c-.091-.872-.128-1.754-.283-2.615a11.248,11.248,0,0,0-5.934-8.436,12.1,12.1,0,0,0-7.643-1.174,10.741,10.741,0,0,0-8.4,5.933,13.768,13.768,0,0,0-.817,10.6,10.126,10.126,0,0,0,5.919,6.572,12.975,12.975,0,0,0,9.752.317,10.381,10.381,0,0,0,6.168-5.478A13.522,13.522,0,0,0,162.6,207.477Z" transform="translate(-69.814 -173.119)" fill="#1b9331"/>
      <path id="Trazado_42" data-name="Trazado 42" d="M207.236,227.371h-8.33c-.016-.185-.045-.361-.045-.538,0-7.413-.057-14.828.012-22.241a17.364,17.364,0,0,1,13.465-16.824,16.877,16.877,0,0,1,12.842,2.068c.6.375,1.211.737,1.865,1.134l-3.938,7.152c-.685-.42-1.331-.812-1.975-1.21a9.047,9.047,0,0,0-13.771,6.315,11.775,11.775,0,0,0-.121,1.82q-.012,10.817-.005,21.633Z" transform="translate(-91.264 -173.252)" fill="#1b9331"/>
    </g>
    <path id="Trazado_43" data-name="Trazado 43" d="M472.022,171c.668.072,1.336.15,2,.215a30.026,30.026,0,0,1,14.189,5.113A30.845,30.845,0,0,1,501.274,195.2a29.982,29.982,0,0,1,.694,9.5,30.471,30.471,0,0,1-9.247,19.781,29.919,29.919,0,0,1-16.949,8.549,30.515,30.515,0,0,1-26.421-8.18,29.445,29.445,0,0,1-9.177-16.767A30.407,30.407,0,0,1,448.09,180.9a30.042,30.042,0,0,1,17.286-9.367c1.193-.211,2.411-.284,3.617-.425.233-.027.462-.074.694-.112Zm-28.566,31.227a27.391,27.391,0,1,0,27.452-27.346A27.334,27.334,0,0,0,443.456,202.227Z" transform="translate(-124.847 -1.316)" fill="#1b9331"/>
    <g id="Grupo_7" data-name="Grupo 7" transform="translate(330.426 182.112)">
      <path id="Trazado_44" data-name="Trazado 44" d="M483.277,215.471a4.07,4.07,0,1,0,4.069,4.069A4.073,4.073,0,0,0,483.277,215.471Z" transform="translate(-467.706 -197.392)" fill="#1b9331"/>
      <path id="Trazado_45" data-name="Trazado 45" d="M493.38,201.992a15.637,15.637,0,0,0-15.341-12.875c-.757.056-1.526.047-2.271.177a15.358,15.358,0,0,0-12.346,9.983,13.118,13.118,0,0,0-.842,6.853,19.109,19.109,0,0,0,1.58,4.945,71.883,71.883,0,0,0,7.185,12.259,8.2,8.2,0,0,0,8.882,3.049,8.442,8.442,0,0,0,4.891-3.627,76.363,76.363,0,0,0,7.007-12.243A14.483,14.483,0,0,0,493.38,201.992Zm-22.463-.091a10.553,10.553,0,0,1,14.295,0h0l.01.01a.361.361,0,0,1,0,.511l-.777.771a.369.369,0,0,1-.508.008,8.708,8.708,0,0,0-11.739,0,.368.368,0,0,1-.508-.008l-.777-.771-.01-.01A.362.362,0,0,1,470.917,201.9Zm11.76,3.1-.781.772a.371.371,0,0,1-.5.018,5.112,5.112,0,0,0-6.661,0,.37.37,0,0,1-.5-.018l-.782-.772-.018-.019a.358.358,0,0,1,.031-.506,6.967,6.967,0,0,1,9.2,0l.019.018A.359.359,0,0,1,482.677,205Zm3.475,8.976-3.886.652a5.417,5.417,0,0,1-8.506,0l-3.886-.65V208.55l3.886-.643a5.406,5.406,0,0,1,8.506,0l3.886.643Z" transform="translate(-462.442 -189.117)" fill="#1b9331"/>
    </g>
  </g>
</svg>
