<svg xmlns="http://www.w3.org/2000/svg" class="ionicon" width="27.549" height="36.067" viewBox="0 0 27.549 36.067">
  <path id="file-invoice-solid" d="M20.662,18.034H6.887v4.508H20.662ZM27.047,7.4,20.023.493A1.737,1.737,0,0,0,18.8,0h-.438V9.017h9.183v-.43A1.67,1.67,0,0,0,27.047,7.4ZM16.07,9.58V0H1.722A1.7,1.7,0,0,0,0,1.691V34.376a1.7,1.7,0,0,0,1.722,1.691H25.827a1.7,1.7,0,0,0,1.722-1.691V11.271H17.792A1.711,1.711,0,0,1,16.07,9.58ZM4.592,5.072a.569.569,0,0,1,.574-.564H10.9a.569.569,0,0,1,.574.564V6.2a.569.569,0,0,1-.574.564H5.165A.569.569,0,0,1,4.592,6.2Zm0,4.508a.569.569,0,0,1,.574-.564H10.9a.569.569,0,0,1,.574.564v1.127a.569.569,0,0,1-.574.564H5.165a.569.569,0,0,1-.574-.564ZM22.958,31a.569.569,0,0,1-.574.564H16.644A.569.569,0,0,1,16.07,31V29.868a.569.569,0,0,1,.574-.564h5.739a.569.569,0,0,1,.574.564Zm0-14.089v6.763A1.137,1.137,0,0,1,21.81,24.8H5.739a1.137,1.137,0,0,1-1.148-1.127V16.906a1.137,1.137,0,0,1,1.148-1.127H21.81A1.137,1.137,0,0,1,22.958,16.906Z" />
</svg>
