<svg xmlns="http://www.w3.org/2000/svg" width="39.411" height="62.139" viewBox="0 0 39.411 62.139">
  <g id="Group_76" data-name="Group 76" transform="translate(-87.824 -416.713)">
    <path id="question-solid" d="M39.623,0C33.277,0,29.167,2.6,25.94,7.237a1.91,1.91,0,0,0,.412,2.614l3.43,2.6a1.908,1.908,0,0,0,2.644-.33C34.417,9.626,35.894,8.19,39,8.19c2.446,0,5.471,1.574,5.471,3.946,0,1.793-1.48,2.714-3.9,4.068-2.816,1.579-6.543,3.544-6.543,8.459v.778a1.908,1.908,0,0,0,1.908,1.908h5.762a1.908,1.908,0,0,0,1.908-1.908v-.459c0-3.407,9.959-3.549,9.959-12.77C53.574,5.267,46.371,0,39.623,0Zm-.8,29.691A5.507,5.507,0,1,0,44.334,35.2,5.513,5.513,0,0,0,38.826,29.691Z" transform="translate(62.227 438.148)" fill="#fff"/>
    <path id="FontAwsome_wifi_" data-name="FontAwsome wifi " d="M110.845,82.908a14.754,14.754,0,0,0-19.984,0,.506.506,0,0,0-.024.715l.014.014,1.086,1.078a.515.515,0,0,0,.711.012,12.174,12.174,0,0,1,16.412,0,.515.515,0,0,0,.711-.012l1.087-1.078a.5.5,0,0,0,0-.715l-.014-.014Zm-3.561,3.6a9.741,9.741,0,0,0-12.862,0,.5.5,0,0,0-.044.708l.025.027L95.5,88.324a.517.517,0,0,0,.7.025,7.146,7.146,0,0,1,9.313,0,.517.517,0,0,0,.7-.025l1.093-1.079a.5.5,0,0,0,.009-.709Z" transform="matrix(0.643, 0.766, -0.766, 0.643, 116.406, 296.447)" fill="#fff"/>
  </g>
</svg>
