<svg xmlns="http://www.w3.org/2000/svg" width="34.055" height="25.953" viewBox="0 0 34.055 25.953">
  <path id="sign-out-alt-solid" d="M33.584,78.1,22.232,89.455a1.624,1.624,0,0,1-2.771-1.149V81.82h-9.19A1.618,1.618,0,0,1,8.649,80.2V73.711a1.618,1.618,0,0,1,1.622-1.622h9.19V65.6a1.625,1.625,0,0,1,2.771-1.149L33.584,75.806A1.636,1.636,0,0,1,33.584,78.1ZM12.974,89.118v-2.7a.813.813,0,0,0-.811-.811H6.487a2.16,2.16,0,0,1-2.162-2.162V70.467A2.16,2.16,0,0,1,6.487,68.3h5.676a.813.813,0,0,0,.811-.811v-2.7a.813.813,0,0,0-.811-.811H6.487A6.489,6.489,0,0,0,0,70.467V83.441a6.489,6.489,0,0,0,6.487,6.487h5.676A.813.813,0,0,0,12.974,89.118Z" transform="translate(0 -63.979)" fill="#848282"/>
</svg>
