<svg xmlns="http://www.w3.org/2000/svg" width="60.912" height="60.912" viewBox="0 0 60.912 60.912">
  <path id="user-circle-solid" d="M30.456,8A30.456,30.456,0,1,0,60.912,38.456,30.451,30.451,0,0,0,30.456,8Zm0,11.789A10.807,10.807,0,1,1,19.649,30.6,10.807,10.807,0,0,1,30.456,19.789Zm0,42.246A23.533,23.533,0,0,1,12.465,53.66a13.692,13.692,0,0,1,12.1-7.344,3,3,0,0,1,.872.135,16.26,16.26,0,0,0,5.023.847,16.2,16.2,0,0,0,5.023-.847,3,3,0,0,1,.872-.135,13.692,13.692,0,0,1,12.1,7.344A23.533,23.533,0,0,1,30.456,62.035Z" transform="translate(0 -8)" fill="#a2a0a0"/>
</svg>
