<svg xmlns="http://www.w3.org/2000/svg" width="41.652" height="48.456" viewBox="0 0 41.652 48.456">
  <path id="Trazado_99" data-name="Trazado 99" d="M4,37.7a7.549,7.549,0,0,0,2.6,5.662v4.54a2.585,2.585,0,0,0,2.6,2.55h2.6a2.585,2.585,0,0,0,2.6-2.55v-2.55H35.239v2.55a2.585,2.585,0,0,0,2.6,2.55h2.6a2.585,2.585,0,0,0,2.6-2.55v-4.54a7.549,7.549,0,0,0,2.6-5.662V12.2c0-8.926-9.32-10.2-20.826-10.2S4,3.275,4,12.2Zm9.111,2.55a3.826,3.826,0,1,1,3.9-3.825A3.861,3.861,0,0,1,13.111,40.255Zm23.429,0a3.826,3.826,0,1,1,3.9-3.825A3.861,3.861,0,0,1,36.541,40.255Zm3.9-15.3H9.207V12.2H40.446Z" transform="translate(-4 -2)" fill="#D40000"/>
</svg>
