<svg xmlns="http://www.w3.org/2000/svg" width="35.63" height="57.007" viewBox="0 0 35.63 57.007">
  <path id="walking-solid" d="M23.178,10.687a5.344,5.344,0,1,0-5.344-5.344A5.345,5.345,0,0,0,23.178,10.687Zm10.52,16.6L31.1,25.972,30.025,22.7a12.138,12.138,0,0,0-11.377-8.45c-4.008-.011-6.223,1.124-10.387,2.805A10.619,10.619,0,0,0,2.727,22.2l-.746,1.514a3.574,3.574,0,0,0,1.581,4.776A3.515,3.515,0,0,0,8.294,26.9l.746-1.514a3.539,3.539,0,0,1,1.837-1.714l2.984-1.2-1.692,6.757a7.15,7.15,0,0,0,1.659,6.546L20.5,43.05a7.184,7.184,0,0,1,1.659,3.084l2.037,8.16A3.563,3.563,0,0,0,31.1,52.568L28.633,42.66a7.121,7.121,0,0,0-1.659-3.084l-5.065-5.533L23.824,26.4l.612,1.837a7.1,7.1,0,0,0,3.529,4.119l2.594,1.314a3.515,3.515,0,0,0,4.731-1.592A3.6,3.6,0,0,0,33.7,27.286ZM8.216,42.949a6.908,6.908,0,0,1-1.581,2.394L1.069,50.92A3.562,3.562,0,0,0,6.1,55.963l6.613-6.613a7.236,7.236,0,0,0,1.581-2.394l1.5-3.763c-6.156-6.713-4.308-4.653-5.277-5.978l-2.3,5.733Z" transform="translate(-0.025)" fill="#D40000"/>
</svg>
