<svg xmlns="http://www.w3.org/2000/svg" width="25.07" height="20.055" viewBox="0 0 25.07 20.055">
  <path id="Icon_awesome-warehouse" data-name="Icon awesome-warehouse" d="M19.164,13.27H5.747a2.559,2.559,0,0,0-.958.948v1.9c0,.17.787,0,.958,0H19.164c.171,0,.958.17.958,0v-1.9A2.56,2.56,0,0,0,19.164,13.27Zm0,3.793H5.747a2.56,2.56,0,0,0-.958.948v.948a2.56,2.56,0,0,0,.958.948H19.164a2.56,2.56,0,0,0,.958-.948v-.948A2.56,2.56,0,0,0,19.164,17.063Zm0-7.586H5.747a2.56,2.56,0,0,0-.958.948v1.9c0,.17.787,0,.958,0H19.164c.171,0,.958.17.958,0v-1.9A2.56,2.56,0,0,0,19.164,9.477Zm4.792-4.741L13.414-.006a3.315,3.315,0,0,0-1.917,0L.955,4.735A1.977,1.977,0,0,0,0,6.632V18.96c0,.17-.171.948,0,.948H3.83c.171,0,0-.779,0-.948V9.477c0-.678.258-.948.958-.948H20.123c.7,0,.958.27.958.948V18.96c0,.17-.171.948,0,.948h3.834c.171,0,0-.779,0-.948V6.632A1.977,1.977,0,0,0,23.956,4.735Z" transform="translate(0.079 0.148)" fill="#D40000"/>
</svg>
