<svg xmlns="http://www.w3.org/2000/svg" width="222.978" height="41.466" viewBox="0 0 222.978 41.466">
  <g id="Group_74" data-name="Group 74" transform="translate(-42.022 -399.405)">
    <g id="Group_73" data-name="Group 73" transform="translate(42.022 400.957)">
      <path id="Path_139" data-name="Path 139" d="M61.734,434.984c-.081.2-.128.311-.167.42q-2.6,7.244-5.194,14.49a.439.439,0,0,1-.5.355c-1.385-.015-2.772-.012-4.157,0a.357.357,0,0,1-.409-.28Q46.728,437.1,42.134,424.24c-.041-.113-.068-.23-.112-.378h1.586c1.352,0,2.7.01,4.056-.007a.431.431,0,0,1,.492.357q2.577,7.589,5.172,15.172c.159.466.322.929.508,1.464.079-.192.136-.31.179-.434q2.813-8.132,5.618-16.265a.355.355,0,0,1,.4-.292q1.673.02,3.346,0a.386.386,0,0,1,.448.316q2.778,8.125,5.58,16.243c.035.1.078.2.146.379.072-.169.119-.264.153-.363q2.742-8.084,5.473-16.172a.489.489,0,0,1,.56-.4c1.724.018,3.448.008,5.172.008h.415c-.036.135-.057.24-.092.34q-4.564,12.871-9.126,25.743a.383.383,0,0,1-.433.3c-1.4-.011-2.794-.014-4.191,0-.266,0-.361-.1-.443-.331q-2.545-7.191-5.106-14.376C61.883,435.389,61.826,435.236,61.734,434.984Z" transform="translate(-42.022 -414.257)" fill="#fff"/>
      <path id="Path_140" data-name="Path 140" d="M307.214,414.475c.778-.434,1.492-.889,2.251-1.245a13.564,13.564,0,0,1,6.511-1.153c5.8.271,10.753,3.81,12.068,9.992a15.8,15.8,0,0,1-.589,9.086,11.784,11.784,0,0,1-8.579,7.549,13.748,13.748,0,0,1-16.837-9.86,11.612,11.612,0,0,1-.311-2.566c-.026-6.02-.015-12.041-.013-18.062a5.458,5.458,0,0,1,5.051-5.4c.4-.028.424-.01.424.392q0,5.4,0,10.8C307.192,414.167,307.206,414.32,307.214,414.475Zm7.929,3.012c-.414.031-.832.041-1.243.1a7.194,7.194,0,0,0-5.71,3.92,8.72,8.72,0,0,0-.816,5.6,7.363,7.363,0,0,0,4.214,5.809,8.326,8.326,0,0,0,5.34.565,6.791,6.791,0,0,0,5.577-4.926,10.338,10.338,0,0,0-.04-6.074,6.532,6.532,0,0,0-3.555-4.193A8.832,8.832,0,0,0,315.143,417.487Z" transform="translate(-183.291 -402.809)" fill="#fff"/>
      <path id="Path_141" data-name="Path 141" d="M373.579,439.324c.2.48.347.893.545,1.277a7.137,7.137,0,0,0,5.385,3.869,10.034,10.034,0,0,0,7.292-1.508,7.887,7.887,0,0,0,2-2.125c.1-.134.2-.262.322-.413l4.172,3.334a14.325,14.325,0,0,1-3.221,3.5,14.767,14.767,0,0,1-6.691,2.683,14.282,14.282,0,0,1-7.684-.845,12.342,12.342,0,0,1-7.593-8.95,13.855,13.855,0,0,1,1.395-10.494,12.587,12.587,0,0,1,9.091-6.361,14.26,14.26,0,0,1,9.846,1.626,11.161,11.161,0,0,1,5.437,7.655,17.517,17.517,0,0,1,.157,6.067c-.089.681-.09.681-.783.681H373.579Zm15.045-5.311a.679.679,0,0,0,.007-.151,6.17,6.17,0,0,0-3.319-4.54,9.12,9.12,0,0,0-4.95-.868A7.194,7.194,0,0,0,374.1,432.7c-.2.408-.331.847-.51,1.313Z" transform="translate(-219.164 -413.817)" fill="#fff"/>
      <path id="Path_142" data-name="Path 142" d="M251.891,403.119v17.614c.156-.13.249-.2.332-.277q4.04-3.737,8.083-7.472a.72.72,0,0,1,.43-.2c2.512-.012,5.025-.009,7.537-.008.043,0,.087.01.206.023l-13.55,12.508,15,13.854h-.445c-2.343,0-4.687-.005-7.031.006a.968.968,0,0,1-.716-.276q-4.745-4.342-9.5-8.671c-.082-.074-.166-.145-.319-.277v9.2h-5.526v-.406q0-15.073,0-30.145a5.474,5.474,0,0,1,4.8-5.4C251.407,403.162,251.629,403.144,251.891,403.119Z" transform="translate(-153.195 -402.978)" fill="#fff"/>
      <path id="Path_143" data-name="Path 143" d="M157.339,436.213a13.942,13.942,0,0,1-2.351,8.367,12.51,12.51,0,0,1-8.189,5.2,14.11,14.11,0,0,1-8.775-.976,12.209,12.209,0,0,1-7.175-9.193,14.6,14.6,0,0,1,.98-9.131,12.368,12.368,0,0,1,9.253-7.267,13.8,13.8,0,0,1,8.8.987,12.565,12.565,0,0,1,7.03,8.723A13.394,13.394,0,0,1,157.339,436.213Zm-5.489.366c-.061-.58-.085-1.166-.188-1.738a7.477,7.477,0,0,0-3.945-5.608,8.04,8.04,0,0,0-5.08-.78,7.14,7.14,0,0,0-5.584,3.944,9.152,9.152,0,0,0-.543,7.044,6.731,6.731,0,0,0,3.935,4.369,8.625,8.625,0,0,0,6.483.211,6.9,6.9,0,0,0,4.1-3.642A8.988,8.988,0,0,0,151.85,436.579Z" transform="translate(-90.17 -413.74)" fill="#fff"/>
      <path id="Path_144" data-name="Path 144" d="M204.421,449.946h-5.537c-.01-.123-.03-.24-.03-.358,0-4.928-.038-9.857.008-14.785a11.542,11.542,0,0,1,8.951-11.184,11.218,11.218,0,0,1,8.537,1.375c.4.249.8.49,1.24.754l-2.618,4.754c-.455-.279-.885-.54-1.313-.8a6.014,6.014,0,0,0-9.154,4.2,7.828,7.828,0,0,0-.08,1.21q-.008,7.19,0,14.38Z" transform="translate(-127.329 -413.971)" fill="#fff"/>
    </g>
    <path id="Trazado_5" data-name="Trazado 5" d="M461.545,399.4c.444.048.886.1,1.331.142a19.921,19.921,0,0,1,9.418,3.393,20.475,20.475,0,0,1,8.668,12.527,19.915,19.915,0,0,1,.461,6.3,20.229,20.229,0,0,1-6.138,13.133,19.856,19.856,0,0,1-11.251,5.674,20.251,20.251,0,0,1-17.537-5.429,19.543,19.543,0,0,1-6.091-11.129,20.185,20.185,0,0,1,5.252-18.039,19.942,19.942,0,0,1,11.476-6.218c.792-.14,1.6-.188,2.4-.282.154-.018.307-.049.461-.074Zm-18.96,20.727a18.111,18.111,0,1,0,0-.087Z" transform="translate(-216.497)" fill="#fff"/>
    <path id="Path_145" data-name="Path 145" d="M483.369,425.866a10.49,10.49,0,0,0-10.291-8.637,14.594,14.594,0,0,0-1.52.121,10.3,10.3,0,0,0-8.286,6.694,8.8,8.8,0,0,0-.564,4.6,12.816,12.816,0,0,0,1.059,3.317,48.243,48.243,0,0,0,4.82,8.223,5.5,5.5,0,0,0,5.958,2.045,5.661,5.661,0,0,0,3.281-2.433,51.236,51.236,0,0,0,4.7-8.213A9.718,9.718,0,0,0,483.369,425.866Zm-12.864,4.721a1.088,1.088,0,0,1-1.088,1.088h-1.232a1.087,1.087,0,0,1-1.087-1.088v-1.232a1.087,1.087,0,0,1,1.087-1.087h1.232a1.087,1.087,0,0,1,1.088,1.087Zm4.258,0a1.087,1.087,0,0,1-1.087,1.088h-1.232a1.088,1.088,0,0,1-1.088-1.088v-1.232a1.087,1.087,0,0,1,1.088-1.087h1.232a1.087,1.087,0,0,1,1.087,1.087Zm0-4.258a1.087,1.087,0,0,1-1.087,1.087h-1.232a1.087,1.087,0,0,1-1.088-1.087V425.1a1.088,1.088,0,0,1,1.088-1.088h1.232a1.087,1.087,0,0,1,1.087,1.088Zm4.259,4.258a1.088,1.088,0,0,1-1.087,1.088H476.7a1.087,1.087,0,0,1-1.087-1.088v-1.232a1.087,1.087,0,0,1,1.087-1.087h1.232a1.087,1.087,0,0,1,1.087,1.087Zm0-4.258a1.087,1.087,0,0,1-1.087,1.087H476.7a1.087,1.087,0,0,1-1.087-1.087V425.1a1.087,1.087,0,0,1,1.087-1.088h1.232a1.088,1.088,0,0,1,1.087,1.088Z" transform="translate(-228.8 -9.696)" fill="#fff"/>
  </g>
</svg>
