<svg id="Componente_40_1" data-name="Componente 40 – 1" xmlns="http://www.w3.org/2000/svg" width="335.207" height="60.597" viewBox="0 0 335.207 60.597">
  <g id="Grupo_30" data-name="Grupo 30" transform="translate(-42.022 -285.809)">
    <g id="Grupo_29" data-name="Grupo 29" transform="translate(42.022 288.809)">
      <path id="Trazado_91" data-name="Trazado 91" d="M71.871,322.708c-.123.308-.193.47-.253.637q-3.939,10.969-7.866,21.941a.664.664,0,0,1-.753.537c-2.1-.023-4.2-.019-6.3,0a.541.541,0,0,1-.619-.425q-6.936-19.482-13.893-38.957c-.061-.171-.1-.349-.17-.573h2.4c2.047,0,4.095.014,6.142-.011a.653.653,0,0,1,.744.54q3.9,11.492,7.831,22.974c.241.7.487,1.407.769,2.217.12-.29.206-.47.271-.657q4.259-12.313,8.507-24.63a.538.538,0,0,1,.61-.443q2.533.03,5.067,0a.585.585,0,0,1,.678.478q4.207,12.3,8.45,24.6c.053.154.117.3.222.574.108-.256.18-.4.231-.55q4.151-12.242,8.287-24.489a.74.74,0,0,1,.848-.613c2.61.027,5.221.012,7.831.012h.628c-.055.205-.086.364-.139.515q-6.912,19.49-13.818,38.982a.58.58,0,0,1-.656.459c-2.116-.017-4.231-.021-6.346,0-.4,0-.546-.147-.671-.5q-3.854-10.889-7.732-21.769C72.1,323.321,72.01,323.089,71.871,322.708Z" transform="translate(-42.022 -291.322)" fill="#d40000"/>
      <path id="Trazado_92" data-name="Trazado 92" d="M310.044,302.474c1.179-.657,2.259-1.346,3.409-1.885a20.54,20.54,0,0,1,9.859-1.746c8.778.41,16.282,5.768,18.274,15.131a23.931,23.931,0,0,1-.891,13.759,17.844,17.844,0,0,1-12.99,11.431,19.941,19.941,0,0,1-14.056-1.219c-5.818-2.863-9.929-7.243-11.44-13.711a17.586,17.586,0,0,1-.471-3.885c-.039-9.116-.023-18.233-.02-27.35a8.265,8.265,0,0,1,7.649-8.176c.608-.042.641-.016.642.594q0,8.179,0,16.359C310.01,302.007,310.032,302.239,310.044,302.474Zm12.006,4.56c-.628.048-1.26.062-1.882.148a10.893,10.893,0,0,0-8.647,5.936,13.2,13.2,0,0,0-1.236,8.481,11.149,11.149,0,0,0,6.381,8.8,12.608,12.608,0,0,0,8.086.856c4.238-.856,7.186-3.254,8.446-7.46a15.655,15.655,0,0,0-.061-9.2,9.89,9.89,0,0,0-5.383-6.35A13.373,13.373,0,0,0,322.05,307.034Z" transform="translate(-122.394 -284.809)" fill="#d40000"/>
      <path id="Trazado_93" data-name="Trazado 93" d="M376.625,329.7c.307.726.525,1.352.826,1.934a10.808,10.808,0,0,0,8.154,5.859,15.194,15.194,0,0,0,11.041-2.284,11.943,11.943,0,0,0,3.031-3.218c.15-.2.309-.4.488-.625l6.317,5.049a21.7,21.7,0,0,1-4.878,5.305,22.361,22.361,0,0,1-10.132,4.062,21.627,21.627,0,0,1-11.635-1.279,18.688,18.688,0,0,1-11.5-13.553,20.981,20.981,0,0,1,2.112-15.89,19.059,19.059,0,0,1,13.767-9.633,21.594,21.594,0,0,1,14.909,2.462,16.9,16.9,0,0,1,8.233,11.592,26.525,26.525,0,0,1,.238,9.186c-.135,1.031-.136,1.031-1.186,1.031H376.625Zm22.781-8.042a1.026,1.026,0,0,0,.011-.229,9.343,9.343,0,0,0-5.026-6.874,13.81,13.81,0,0,0-7.495-1.314,10.893,10.893,0,0,0-9.486,6.429c-.3.617-.5,1.283-.772,1.988Z" transform="translate(-142.803 -291.072)" fill="#d40000"/>
      <path id="Trazado_94" data-name="Trazado 94" d="M254.721,285.119V311.79c.237-.2.376-.3.5-.419q6.117-5.659,12.239-11.314a1.09,1.09,0,0,1,.65-.306c3.8-.019,7.609-.013,11.413-.012.066,0,.131.014.312.035l-20.518,18.94,22.713,20.979h-.675c-3.548,0-7.1-.008-10.646.009a1.465,1.465,0,0,1-1.084-.418q-7.185-6.575-14.389-13.13c-.124-.113-.252-.219-.483-.42v13.93h-8.368v-.615q0-22.824,0-45.647a8.288,8.288,0,0,1,7.263-8.178C253.988,285.185,254.324,285.158,254.721,285.119Z" transform="translate(-105.272 -284.905)" fill="#d40000"/>
      <path id="Trazado_95" data-name="Trazado 95" d="M171.125,325.058c0,4.957-1.021,9.046-3.56,12.669a18.944,18.944,0,0,1-12.4,7.874,21.365,21.365,0,0,1-13.287-1.478A18.488,18.488,0,0,1,131.013,330.2a22.113,22.113,0,0,1,1.484-13.827,18.728,18.728,0,0,1,14.012-11,20.9,20.9,0,0,1,13.326,1.495,19.026,19.026,0,0,1,10.646,13.209A20.281,20.281,0,0,1,171.125,325.058Zm-8.311.554c-.092-.878-.128-1.766-.285-2.632a11.321,11.321,0,0,0-5.974-8.492,12.174,12.174,0,0,0-7.693-1.181,10.812,10.812,0,0,0-8.456,5.972,13.858,13.858,0,0,0-.822,10.666,10.192,10.192,0,0,0,5.958,6.615,13.06,13.06,0,0,0,9.816.319,10.45,10.45,0,0,0,6.208-5.514A13.611,13.611,0,0,0,162.814,325.612Z" transform="translate(-69.415 -291.028)" fill="#d40000"/>
      <path id="Trazado_96" data-name="Trazado 96" d="M207.291,345.635h-8.385c-.016-.186-.045-.364-.045-.542,0-7.462-.057-14.926.012-22.388a17.478,17.478,0,0,1,13.554-16.935,16.988,16.988,0,0,1,12.927,2.082c.6.377,1.219.742,1.877,1.141l-3.964,7.2c-.689-.423-1.34-.818-1.988-1.218a9.107,9.107,0,0,0-13.861,6.356,11.852,11.852,0,0,0-.122,1.832q-.012,10.888-.006,21.775Z" transform="translate(-90.556 -291.159)" fill="#d40000"/>
    </g>
    <path id="Trazado_13" data-name="Trazado 13" d="M471.361,289c.646.07,1.29.145,1.936.209A28.932,28.932,0,0,1,487,294.17a29.921,29.921,0,0,1,12.617,18.307,29.183,29.183,0,0,1,.671,9.214,29.612,29.612,0,0,1-8.934,19.188,28.863,28.863,0,0,1-16.376,8.291,29.4,29.4,0,0,1-25.525-7.935,28.6,28.6,0,0,1-8.866-16.264,29.577,29.577,0,0,1,7.644-26.363,29,29,0,0,1,16.7-9.087c1.153-.2,2.329-.275,3.492-.412.224-.026.447-.072.671-.108Zm-27.6,30.29a26.607,26.607,0,1,0,0-.127C443.763,319.208,443.763,319.25,443.763,319.292Z" transform="translate(-123.172 -3.191)" fill="#d40000"/>
    <path id="Trazado_97" data-name="Trazado 97" d="M491.861,318.972a15.125,15.125,0,0,0-14.821-12.489c-.731.055-1.47.046-2.2.168a14.852,14.852,0,0,0-11.928,9.683,12.778,12.778,0,0,0-.813,6.649,18.6,18.6,0,0,0,1.526,4.8,69.79,69.79,0,0,0,6.942,11.891,7.91,7.91,0,0,0,8.58,2.957,8.159,8.159,0,0,0,4.726-3.518,74.213,74.213,0,0,0,6.774-11.873A14.1,14.1,0,0,0,491.861,318.972Zm-16.378,9.657a.671.671,0,0,1-1.146-.474v-2.7h-3.8a.671.671,0,0,1-.668-.673v-2.7a.671.671,0,0,1,.671-.67h3.8v-2.694a.678.678,0,0,1,.2-.471.669.669,0,0,1,.95,0l4.7,4.715h0a.681.681,0,0,1,0,.952Zm8.693-2.72a2.69,2.69,0,0,1-2.683,2.694h-2.348a.337.337,0,0,1-.335-.337v-1.123a.337.337,0,0,1,.335-.336h2.348a.9.9,0,0,0,.895-.9v-5.389a.9.9,0,0,0-.893-.9h-2.35a.336.336,0,0,1-.335-.336v-1.123a.336.336,0,0,1,.335-.336h2.348a2.69,2.69,0,0,1,2.683,2.694Z" transform="translate(-129.971 -7.674)" fill="#d40000"/>
  </g>
</svg>
